<svg width="578" height="186" viewBox="0 0 578 186" fill="none" xmlns="http://www.w3.org/2000/svg">
<path d="M219.096 143.312C214.109 143.312 209.032 142.677 203.864 141.408C198.787 140.229 194.525 138.643 191.08 136.648L191.896 117.744H195.84L200.056 127.128C201.325 129.757 202.64 131.933 204 133.656C205.36 135.379 207.173 136.693 209.44 137.6C210.981 138.235 212.432 138.688 213.792 138.96C215.243 139.141 216.829 139.232 218.552 139.232C224.083 139.232 228.435 137.827 231.608 135.016C234.872 132.115 236.504 128.307 236.504 123.592C236.504 119.331 235.371 115.976 233.104 113.528C230.928 111.08 227.392 108.723 222.496 106.456L216.92 104.008C209.304 100.653 203.275 96.7547 198.832 92.312C194.48 87.8693 192.304 81.976 192.304 74.632C192.304 69.192 193.664 64.568 196.384 60.76C199.195 56.8613 203.048 53.8693 207.944 51.784C212.84 49.6987 218.552 48.656 225.08 48.656C229.885 48.656 234.373 49.2907 238.544 50.56C242.805 51.8293 246.523 53.552 249.696 55.728L248.744 72.592H244.8L239.768 62.392C238.317 59.4 236.912 57.2693 235.552 56C234.283 54.64 232.696 53.7787 230.792 53.416C229.704 53.2347 228.752 53.0987 227.936 53.008C227.211 52.9173 226.213 52.872 224.944 52.872C220.501 52.872 216.648 54.1867 213.384 56.816C210.211 59.3547 208.624 62.8907 208.624 67.424C208.624 71.776 209.848 75.312 212.296 78.032C214.744 80.752 218.28 83.1547 222.904 85.24L229.024 87.824C237.819 91.632 244.12 95.712 247.928 100.064C251.736 104.325 253.64 109.811 253.64 116.52C253.64 124.499 250.603 130.981 244.528 135.968C238.544 140.864 230.067 143.312 219.096 143.312ZM294.379 73.68C300.091 73.68 304.987 74.8587 309.067 77.216C313.147 79.5733 316.275 82.8373 318.451 87.008C320.718 91.088 321.851 95.8027 321.851 101.152C321.851 102.331 321.806 103.464 321.715 104.552C321.625 105.549 321.443 106.501 321.171 107.408H280.235C280.326 116.747 282.049 123.456 285.403 127.536C288.849 131.616 293.835 133.656 300.363 133.656C304.897 133.656 308.569 132.931 311.379 131.48C314.19 129.939 316.774 127.808 319.131 125.088L321.307 127.128C318.587 132.115 314.87 136.013 310.155 138.824C305.531 141.544 300.001 142.904 293.563 142.904C287.126 142.904 281.459 141.544 276.563 138.824C271.667 136.104 267.814 132.205 265.003 127.128C262.283 121.96 260.923 115.795 260.923 108.632C260.923 101.197 262.51 94.896 265.683 89.728C268.947 84.56 273.118 80.616 278.195 77.896C283.363 75.0853 288.758 73.68 294.379 73.68ZM293.699 77.624C291.07 77.624 288.758 78.3947 286.763 79.936C284.859 81.3867 283.318 84.016 282.139 87.824C281.051 91.5413 280.417 96.8 280.235 103.6H304.579C305.577 94.4427 305.214 87.824 303.491 83.744C301.769 79.664 298.505 77.624 293.699 77.624ZM368.49 172.416V169.832L371.21 169.152C374.746 168.155 376.514 165.888 376.514 162.352V136.104C373.885 138.189 370.847 139.821 367.402 141C364.047 142.269 360.285 142.904 356.114 142.904C348.317 142.904 341.879 140.003 336.802 134.2C331.815 128.397 329.322 120.011 329.322 109.04C329.322 101.515 330.591 95.1227 333.13 89.864C335.669 84.6053 339.159 80.616 343.602 77.896C348.045 75.0853 353.167 73.68 358.97 73.68C362.869 73.68 366.495 74.2693 369.85 75.448C373.205 76.6267 376.242 78.2587 378.962 80.344L392.97 73.68L394.874 75.04L394.466 93.4V162.76C394.466 166.296 396.053 168.517 399.226 169.424L400.722 169.832V172.416H368.49ZM364.546 136.376C368.263 136.376 372.117 134.971 376.106 132.16V83.2C374.293 82.2027 372.479 81.432 370.666 80.888C368.853 80.344 366.903 80.072 364.818 80.072C359.831 80.072 355.887 82.2933 352.986 86.736C350.175 91.1787 348.77 98.5227 348.77 108.768C348.77 118.741 350.13 125.859 352.85 130.12C355.661 134.291 359.559 136.376 364.546 136.376ZM430.447 142.904C424.826 142.904 420.383 141.544 417.119 138.824C413.946 136.013 412.359 131.48 412.359 125.224C412.359 123.048 412.359 121.008 412.359 119.104C412.45 117.109 412.495 114.797 412.495 112.168V79.936H402.839V76.944L406.511 76.4C409.141 75.9467 411.362 75.1307 413.175 73.952C415.079 72.7733 416.802 71.1413 418.343 69.056L427.183 56.816H431.263L430.855 75.72H446.359V79.936H430.719V126.312C430.719 129.576 431.399 132.024 432.759 133.656C434.21 135.288 435.978 136.104 438.063 136.104C439.877 136.104 441.509 135.696 442.959 134.88C444.41 133.973 445.861 132.795 447.311 131.344L449.079 133.384C447.357 136.376 444.954 138.733 441.871 140.456C438.789 142.088 434.981 142.904 430.447 142.904ZM453.622 141V138.416L455.662 137.736C457.475 137.283 458.699 136.512 459.334 135.424C460.059 134.336 460.422 132.885 460.422 131.072V91.224C460.331 89.2293 459.968 87.7333 459.334 86.736C458.699 85.648 457.475 84.9227 455.662 84.56L453.622 84.016V81.568L475.79 73.68L477.422 75.176L478.646 87.144V88.096C480.006 85.5573 481.728 83.2 483.814 81.024C485.899 78.848 488.166 77.08 490.614 75.72C493.062 74.36 495.51 73.68 497.958 73.68C501.403 73.68 503.987 74.5867 505.71 76.4C507.432 78.2133 508.294 80.5253 508.294 83.336C508.294 86.4187 507.432 88.776 505.71 90.408C503.987 91.9493 501.902 92.72 499.454 92.72C495.827 92.72 492.699 91.088 490.07 87.824L489.798 87.552C488.891 86.464 487.848 85.8747 486.67 85.784C485.582 85.6027 484.494 86.1467 483.406 87.416C482.499 88.3227 481.638 89.4107 480.822 90.68C480.096 91.8587 479.416 93.264 478.782 94.896V130.528C478.782 132.251 479.144 133.701 479.87 134.88C480.595 135.968 481.819 136.739 483.542 137.192L487.622 138.416V141H453.622ZM529.787 142.904C524.619 142.904 520.222 141.453 516.595 138.552C513.059 135.56 511.291 131.299 511.291 125.768C511.291 121.416 513.376 117.427 517.547 113.8C521.808 110.083 528.472 107.363 537.539 105.64C539.08 105.277 540.848 104.96 542.843 104.688C544.928 104.325 546.968 103.963 548.963 103.6V93.944C548.963 87.7787 548.192 83.5173 546.651 81.16C545.11 78.8027 542.662 77.624 539.307 77.624H538.899C536.814 77.624 535.136 78.304 533.867 79.664C532.688 80.9333 531.918 83.064 531.555 86.056L531.147 87.824C530.875 91.4507 529.923 94.1253 528.291 95.848C526.659 97.48 524.619 98.296 522.171 98.296C519.904 98.296 518 97.616 516.459 96.256C515.008 94.8053 514.283 92.9467 514.283 90.68C514.283 86.9627 515.552 83.8347 518.091 81.296C520.63 78.7573 523.984 76.8533 528.155 75.584C532.416 74.3147 536.995 73.68 541.891 73.68C549.96 73.68 556.126 75.6293 560.387 79.528C564.648 83.4267 566.779 89.7733 566.779 98.568V128.896C566.779 132.795 568.638 134.744 572.355 134.744H575.483L576.843 136.24C575.211 138.325 573.398 139.912 571.403 141C569.408 142.179 566.688 142.768 563.243 142.768C559.344 142.768 556.216 141.861 553.859 140.048C551.592 138.144 550.096 135.651 549.371 132.568C546.47 135.651 543.614 138.144 540.803 140.048C537.992 141.952 534.32 142.904 529.787 142.904ZM537.675 134.2C539.488 134.2 541.211 133.792 542.843 132.976C544.475 132.16 546.515 130.8 548.963 128.896V107.136C546.606 107.499 544.203 107.952 541.755 108.496C537.856 109.403 534.683 111.08 532.235 113.528C529.878 115.976 528.699 119.285 528.699 123.456C528.699 127.083 529.515 129.803 531.147 131.616C532.87 133.339 535.046 134.2 537.675 134.2Z" fill="white"/>
<mask id="mask0_132_11600" style="mask-type:alpha" maskUnits="userSpaceOnUse" x="0" y="25" width="145" height="145">
<circle cx="72.2224" cy="97.7775" r="72.2222" fill="#D9D9D9"/>
</mask>
<g mask="url(#mask0_132_11600)">
<path d="M0.000183105 61.6664C0.000183105 41.7228 16.1677 25.5553 36.1113 25.5553H108.334C128.277 25.5553 144.445 41.7228 144.445 61.6664V133.889C144.445 153.832 128.277 170 108.334 170H36.1113C16.1677 170 0.000183105 153.832 0.000183105 133.889V61.6664Z" fill="white"/>
<path d="M0.000183105 61.6664C0.000183105 41.7228 16.1677 25.5553 36.1113 25.5553H108.334C128.277 25.5553 144.445 41.7228 144.445 61.6664V133.889C144.445 153.832 128.277 170 108.334 170H36.1113C16.1677 170 0.000183105 153.832 0.000183105 133.889V61.6664Z" fill="url(#paint0_radial_132_11600)"/>
<path d="M0.000183105 61.6664C0.000183105 41.7228 16.1677 25.5553 36.1113 25.5553H108.334C128.277 25.5553 144.445 41.7228 144.445 61.6664V133.889C144.445 153.832 128.277 170 108.334 170H36.1113C16.1677 170 0.000183105 153.832 0.000183105 133.889V61.6664Z" fill="url(#paint1_radial_132_11600)"/>
<path d="M0.000183105 61.6664C0.000183105 41.7228 16.1677 25.5553 36.1113 25.5553H108.334C128.277 25.5553 144.445 41.7228 144.445 61.6664V133.889C144.445 153.832 128.277 170 108.334 170H36.1113C16.1677 170 0.000183105 153.832 0.000183105 133.889V61.6664Z" fill="url(#paint2_radial_132_11600)"/>
<path d="M0.000183105 61.6664C0.000183105 41.7228 16.1677 25.5553 36.1113 25.5553H108.334C128.277 25.5553 144.445 41.7228 144.445 61.6664V133.889C144.445 153.832 128.277 170 108.334 170H36.1113C16.1677 170 0.000183105 153.832 0.000183105 133.889V61.6664Z" fill="url(#paint3_radial_132_11600)"/>
<path d="M0.000183105 61.6664C0.000183105 41.7228 16.1677 25.5553 36.1113 25.5553H108.334C128.277 25.5553 144.445 41.7228 144.445 61.6664V133.889C144.445 153.832 128.277 170 108.334 170H36.1113C16.1677 170 0.000183105 153.832 0.000183105 133.889V61.6664Z" fill="url(#paint4_radial_132_11600)"/>
<path d="M0.000183105 61.6664C0.000183105 41.7228 16.1677 25.5553 36.1113 25.5553H108.334C128.277 25.5553 144.445 41.7228 144.445 61.6664V133.889C144.445 153.832 128.277 170 108.334 170H36.1113C16.1677 170 0.000183105 153.832 0.000183105 133.889V61.6664Z" fill="url(#paint5_radial_132_11600)"/>
<path d="M0.000183105 61.6664C0.000183105 41.7228 16.1677 25.5553 36.1113 25.5553H108.334C128.277 25.5553 144.445 41.7228 144.445 61.6664V133.889C144.445 153.832 128.277 170 108.334 170H36.1113C16.1677 170 0.000183105 153.832 0.000183105 133.889V61.6664Z" fill="url(#paint6_radial_132_11600)"/>
<path d="M0.000183105 61.6664C0.000183105 41.7228 16.1677 25.5553 36.1113 25.5553H108.334C128.277 25.5553 144.445 41.7228 144.445 61.6664V133.889C144.445 153.832 128.277 170 108.334 170H36.1113C16.1677 170 0.000183105 153.832 0.000183105 133.889V61.6664Z" fill="url(#paint7_radial_132_11600)" style="mix-blend-mode:soft-light"/>
</g>
<mask id="path-4-outside-1_132_11600" maskUnits="userSpaceOnUse" x="43.5557" y="56.6666" width="57" height="84" fill="black">
<rect fill="white" x="43.5557" y="56.6666" width="57" height="84"/>
<path d="M90.9888 132.194C88.3181 134.074 84.8951 135.56 80.7197 136.651C76.5444 137.704 71.4286 138.231 65.3725 138.231C59.354 138.231 53.279 137.874 47.1477 137.159V126.213C52.6396 127.454 58.1691 128.075 63.7362 128.075C69.3033 128.075 73.4787 127.774 76.2623 127.172C79.0458 126.532 81.284 125.705 82.9767 124.689C86.0988 122.808 87.6598 120.363 87.6598 117.354C87.6598 115.022 87.058 113.216 85.8543 111.937C83.9359 109.944 81.1711 108.119 77.56 106.464L63.1156 99.8628C58.1503 97.5306 54.6332 95.3677 52.5643 93.3741C48.1257 89.0859 45.9064 84.1206 45.9064 78.4783C45.9064 72.6854 48.4266 68.0023 53.4671 64.4288C58.9966 60.5168 66.8583 58.5607 77.0522 58.5607C83.6349 58.5607 89.6535 58.824 95.1077 59.3507V70.1276C90.481 69.0743 85.3088 68.5477 79.5912 68.5477C73.9113 68.5477 69.7735 68.8486 67.1781 69.4505C64.6202 70.0147 62.6077 70.7482 61.1407 71.651C58.47 73.3061 57.1347 75.4878 57.1347 78.1961C57.1347 80.8292 57.981 83.011 59.6737 84.7413C61.1783 86.2083 63.9243 87.901 67.9116 89.8194L82.751 96.8724C87.6786 99.2045 91.1205 101.405 93.0765 103.474C95.0701 105.543 96.5371 107.63 97.4775 109.737C98.4179 111.806 98.8881 114.307 98.8881 117.241C98.8881 120.138 98.2487 122.884 96.9697 125.479C95.6908 128.037 93.6972 130.275 90.9888 132.194Z"/>
</mask>
<path d="M90.9888 132.194C88.3181 134.074 84.8951 135.56 80.7197 136.651C76.5444 137.704 71.4286 138.231 65.3725 138.231C59.354 138.231 53.279 137.874 47.1477 137.159V126.213C52.6396 127.454 58.1691 128.075 63.7362 128.075C69.3033 128.075 73.4787 127.774 76.2623 127.172C79.0458 126.532 81.284 125.705 82.9767 124.689C86.0988 122.808 87.6598 120.363 87.6598 117.354C87.6598 115.022 87.058 113.216 85.8543 111.937C83.9359 109.944 81.1711 108.119 77.56 106.464L63.1156 99.8628C58.1503 97.5306 54.6332 95.3677 52.5643 93.3741C48.1257 89.0859 45.9064 84.1206 45.9064 78.4783C45.9064 72.6854 48.4266 68.0023 53.4671 64.4288C58.9966 60.5168 66.8583 58.5607 77.0522 58.5607C83.6349 58.5607 89.6535 58.824 95.1077 59.3507V70.1276C90.481 69.0743 85.3088 68.5477 79.5912 68.5477C73.9113 68.5477 69.7735 68.8486 67.1781 69.4505C64.6202 70.0147 62.6077 70.7482 61.1407 71.651C58.47 73.3061 57.1347 75.4878 57.1347 78.1961C57.1347 80.8292 57.981 83.011 59.6737 84.7413C61.1783 86.2083 63.9243 87.901 67.9116 89.8194L82.751 96.8724C87.6786 99.2045 91.1205 101.405 93.0765 103.474C95.0701 105.543 96.5371 107.63 97.4775 109.737C98.4179 111.806 98.8881 114.307 98.8881 117.241C98.8881 120.138 98.2487 122.884 96.9697 125.479C95.6908 128.037 93.6972 130.275 90.9888 132.194Z" fill="white"/>
<path d="M90.9888 132.194L91.8205 133.375L91.8237 133.372L90.9888 132.194ZM80.7197 136.651L81.073 138.052L81.0848 138.049L80.7197 136.651ZM47.1477 137.159H45.7032V138.445L46.9804 138.594L47.1477 137.159ZM47.1477 126.213L47.4661 124.804L45.7032 124.405V126.213H47.1477ZM76.2623 127.172L76.5675 128.584L76.5766 128.582L76.5857 128.58L76.2623 127.172ZM82.9767 124.689L83.7198 125.928L83.722 125.926L82.9767 124.689ZM85.8543 111.937L86.9061 110.947L86.9006 110.942L86.8951 110.936L85.8543 111.937ZM77.56 106.464L78.1618 105.151L78.1604 105.151L77.56 106.464ZM63.1156 99.8628L62.5015 101.17L62.5083 101.173L62.5151 101.177L63.1156 99.8628ZM52.5643 93.3741L51.5607 94.4129L51.5621 94.4142L52.5643 93.3741ZM53.4671 64.4288L52.6329 63.2496L52.6317 63.2504L53.4671 64.4288ZM95.1077 59.3507H96.5522V58.039L95.2466 57.9129L95.1077 59.3507ZM95.1077 70.1276L94.7871 71.536L96.5522 71.9378V70.1276H95.1077ZM67.1781 69.4505L67.4892 70.861L67.4968 70.8594L67.5043 70.8576L67.1781 69.4505ZM61.1407 71.651L60.3837 70.4208L60.3798 70.4232L61.1407 71.651ZM59.6737 84.7413L58.6412 85.7514L58.6531 85.7636L58.6654 85.7755L59.6737 84.7413ZM67.9116 89.8194L67.2853 91.121L67.2915 91.124L67.9116 89.8194ZM82.751 96.8724L82.1309 98.177L82.1331 98.178L82.751 96.8724ZM93.0765 103.474L92.0268 104.466L92.0364 104.476L93.0765 103.474ZM97.4775 109.737L96.1585 110.326L96.1626 110.335L97.4775 109.737ZM96.9697 125.479L98.2617 126.125L98.2654 126.118L96.9697 125.479ZM90.1571 131.013C87.665 132.768 84.4134 134.193 80.3546 135.253L81.0848 138.049C85.3767 136.927 88.9712 135.381 91.8205 133.375L90.1571 131.013ZM80.3664 135.25C76.3427 136.265 71.3536 136.786 65.3725 136.786V139.675C71.5036 139.675 76.746 139.143 81.073 138.052L80.3664 135.25ZM65.3725 136.786C59.4113 136.786 53.3922 136.432 47.3149 135.724L46.9804 138.594C53.1659 139.315 59.2967 139.675 65.3725 139.675V136.786ZM48.5921 137.159V126.213H45.7032V137.159H48.5921ZM46.8292 127.622C52.4244 128.886 58.0607 129.519 63.7362 129.519V126.63C58.2774 126.63 52.8547 126.022 47.4661 124.804L46.8292 127.622ZM63.7362 129.519C69.3283 129.519 73.6289 129.219 76.5675 128.584L75.957 125.76C73.3285 126.328 69.2784 126.63 63.7362 126.63V129.519ZM76.5857 128.58C79.4571 127.92 81.853 127.048 83.7198 125.928L82.2335 123.451C80.715 124.362 78.6345 125.145 75.9388 125.764L76.5857 128.58ZM83.722 125.926C87.171 123.849 89.1043 120.983 89.1043 117.354H86.2154C86.2154 119.743 85.0266 121.768 82.2313 123.452L83.722 125.926ZM89.1043 117.354C89.1043 114.778 88.4356 112.573 86.9061 110.947L84.8024 112.927C85.6803 113.86 86.2154 115.266 86.2154 117.354H89.1043ZM86.8951 110.936C84.8092 108.768 81.8717 106.852 78.1618 105.151L76.9582 107.777C80.4705 109.387 83.0625 111.119 84.8134 112.939L86.8951 110.936ZM78.1604 105.151L63.716 98.5491L62.5151 101.177L76.9596 107.778L78.1604 105.151ZM63.7296 98.5554C58.8021 96.2409 55.4604 94.1589 53.5666 92.334L51.5621 94.4142C53.806 96.5766 57.4985 98.8203 62.5015 101.17L63.7296 98.5554ZM53.568 92.3353C49.3818 88.291 47.3508 83.69 47.3508 78.4783H44.4619C44.4619 84.5512 46.8696 89.8808 51.5607 94.4129L53.568 92.3353ZM47.3508 78.4783C47.3508 73.1893 49.6141 68.931 54.3025 65.6071L52.6317 63.2504C47.2391 67.0735 44.4619 72.1816 44.4619 78.4783H47.3508ZM54.3014 65.608C59.492 61.9357 67.0149 60.0052 77.0522 60.0052V57.1163C66.7018 57.1163 58.5012 59.0978 52.6329 63.2496L54.3014 65.608ZM77.0522 60.0052C83.5975 60.0052 89.5688 60.267 94.9689 60.7884L95.2466 57.9129C89.7381 57.3811 83.6724 57.1163 77.0522 57.1163V60.0052ZM93.6633 59.3507V70.1276H96.5522V59.3507H93.6633ZM95.4284 68.7192C90.6776 67.6377 85.3955 67.1033 79.5912 67.1033V69.9922C85.2221 69.9922 90.2844 70.511 94.7871 71.536L95.4284 68.7192ZM79.5912 67.1033C73.896 67.1033 69.6182 67.4019 66.8518 68.0434L67.5043 70.8576C69.9289 70.2954 73.9265 69.9922 79.5912 69.9922V67.1033ZM66.8669 68.04C64.2247 68.6228 62.0402 69.4014 60.3837 70.4208L61.8978 72.8812C63.1753 72.095 65.0157 71.4067 67.4892 70.861L66.8669 68.04ZM60.3798 70.4232C57.3643 72.292 55.6902 74.9003 55.6902 78.1961H58.5791C58.5791 76.0753 59.5758 74.3202 61.9016 72.8788L60.3798 70.4232ZM55.6902 78.1961C55.6902 81.1704 56.66 83.7262 58.6412 85.7514L60.7063 83.7312C59.302 82.2957 58.5791 80.4881 58.5791 78.1961H55.6902ZM58.6654 85.7755C60.3488 87.4169 63.2775 89.1927 67.2853 91.121L68.5378 88.5178C64.5711 86.6093 62.0079 84.9997 60.6821 83.7071L58.6654 85.7755ZM67.2915 91.124L82.1309 98.1769L83.371 95.5678L68.5316 88.5148L67.2915 91.124ZM82.1331 98.178C87.0192 100.49 90.2609 102.598 92.0269 104.466L94.1261 102.482C91.9801 100.212 88.3381 97.9186 83.3689 95.5668L82.1331 98.178ZM92.0364 104.476C93.9412 106.453 95.3009 108.405 96.1586 110.326L98.7965 109.148C97.7734 106.856 96.1991 104.633 94.1166 102.472L92.0364 104.476ZM96.1626 110.335C96.9966 112.17 97.4437 114.456 97.4437 117.241H100.333C100.333 114.159 99.8392 111.442 98.7925 109.139L96.1626 110.335ZM97.4437 117.241C97.4437 119.917 96.855 122.444 95.674 124.841L98.2654 126.118C99.6423 123.323 100.333 120.359 100.333 117.241H97.4437ZM95.6778 124.833C94.521 127.147 92.6997 129.212 90.1539 131.015L91.8237 133.372C94.6946 131.339 96.8606 128.927 98.2617 126.125L95.6778 124.833Z" fill="white" fill-opacity="0.2" mask="url(#path-4-outside-1_132_11600)"/>
<defs>
<radialGradient id="paint0_radial_132_11600" cx="0" cy="0" r="1" gradientUnits="userSpaceOnUse" gradientTransform="translate(127.994 37.793) rotate(137.811) scale(118.594)">
<stop stop-color="#F7306E"/>
<stop offset="1" stop-color="#F7306E" stop-opacity="0"/>
</radialGradient>
<radialGradient id="paint1_radial_132_11600" cx="0" cy="0" r="1" gradientUnits="userSpaceOnUse" gradientTransform="translate(127.994 37.793) rotate(137.811) scale(118.594)">
<stop stop-color="#F7306E"/>
<stop offset="1" stop-color="#F7306E" stop-opacity="0"/>
</radialGradient>
<radialGradient id="paint2_radial_132_11600" cx="0" cy="0" r="1" gradientUnits="userSpaceOnUse" gradientTransform="translate(124.985 149.136) rotate(-130.284) scale(98.3567)">
<stop stop-color="#EB78F9"/>
<stop offset="1" stop-color="#EB78F9" stop-opacity="0"/>
</radialGradient>
<radialGradient id="paint3_radial_132_11600" cx="0" cy="0" r="1" gradientUnits="userSpaceOnUse" gradientTransform="translate(124.985 149.136) rotate(-130.284) scale(98.3567)">
<stop stop-color="#EB78F9"/>
<stop offset="1" stop-color="#EB78F9" stop-opacity="0"/>
</radialGradient>
<radialGradient id="paint4_radial_132_11600" cx="0" cy="0" r="1" gradientUnits="userSpaceOnUse" gradientTransform="translate(18.6576 158.565) rotate(-46.1691) scale(159.907 164.543)">
<stop stop-color="#00AEFF"/>
<stop offset="1" stop-color="#3963F9" stop-opacity="0"/>
</radialGradient>
<radialGradient id="paint5_radial_132_11600" cx="0" cy="0" r="1" gradientUnits="userSpaceOnUse" gradientTransform="translate(15.0465 36.3886) rotate(42.3246) scale(91.1721)">
<stop stop-color="#F1A455"/>
<stop offset="1" stop-color="#F1A455" stop-opacity="0"/>
</radialGradient>
<radialGradient id="paint6_radial_132_11600" cx="0" cy="0" r="1" gradientUnits="userSpaceOnUse" gradientTransform="translate(15.0465 36.3886) rotate(42.3246) scale(91.1721)">
<stop stop-color="#F1A455"/>
<stop offset="1" stop-color="#F1A455" stop-opacity="0"/>
</radialGradient>
<radialGradient id="paint7_radial_132_11600" cx="0" cy="0" r="1" gradientUnits="userSpaceOnUse" gradientTransform="translate(-3.4103 115.031) rotate(-16.3335) scale(150.519 154.883)">
<stop stop-color="#FFF8E4"/>
<stop offset="1" stop-color="#FFF8E4" stop-opacity="0"/>
</radialGradient>
</defs>
</svg>
